<svg width="20" height="20" viewBox="0 0 20 20" fill="none" xmlns="http://www.w3.org/2000/svg">
<path d="M9.16675 1.66602H7.50008C3.33341 1.66602 1.66675 3.33268 1.66675 7.49935V12.4993C1.66675 16.666 3.33341 18.3327 7.50008 18.3327H12.5001C16.6667 18.3327 18.3334 16.666 18.3334 12.4993V10.8327" stroke="#344054" stroke-width="1.5" stroke-linecap="round" stroke-linejoin="round"/>
<path d="M13.3668 2.51639L6.80011 9.08306C6.51862 9.39183 6.32824 9.7726 6.25011 10.1831L5.89178 12.6914C5.84825 12.8864 5.85467 13.0893 5.91045 13.2811C5.96623 13.473 6.06956 13.6477 6.21085 13.789C6.35214 13.9303 6.52682 14.0336 6.7187 14.0894C6.91057 14.1452 7.11343 14.1516 7.30844 14.1081L9.81678 13.7497C10.226 13.6681 10.6059 13.4781 10.9168 13.1997L17.4834 6.63306C18.6168 5.49972 19.1501 4.18306 17.4834 2.51639C15.8168 0.849722 14.5001 1.38306 13.3668 2.51639Z" stroke="#344054" stroke-width="1.5" stroke-linecap="round" stroke-linejoin="round"/>
<path d="M12.425 3.45898C12.7014 4.44021 13.225 5.33404 13.9458 6.05486C14.6667 6.77567 15.5605 7.29933 16.5417 7.57565" stroke="#344054" stroke-width="1.5" stroke-linecap="round" stroke-linejoin="round"/>
</svg>
