<svg width="36" height="36" viewBox="0 0 36 36" fill="none" xmlns="http://www.w3.org/2000/svg">
<path d="M26.7501 10.9413C26.6583 10.9267 26.5648 10.9267 26.473 10.9413C25.4859 10.905 24.5524 10.4827 23.8735 9.76524C23.1945 9.04776 22.8243 8.09245 22.8424 7.10481C22.8606 6.11716 23.2657 5.1761 23.9706 4.48406C24.6754 3.79202 25.6238 3.4043 26.6116 3.4043C27.5994 3.4043 28.5477 3.79202 29.2526 4.48406C29.9575 5.1761 30.3626 6.11716 30.3807 7.10481C30.3989 8.09245 30.0287 9.04776 29.3497 9.76524C28.6707 10.4827 27.7373 10.905 26.7501 10.9413Z" stroke="#757575" stroke-width="2" stroke-linecap="round" stroke-linejoin="round"/>
<path d="M25.2479 21.5583C27.2271 21.9238 29.2716 21.5502 30.9937 20.5083C31.4572 20.2771 31.8471 19.9213 32.1196 19.4808C32.3921 19.0403 32.5364 18.5325 32.5364 18.0146C32.5364 17.4966 32.3921 16.9889 32.1196 16.5484C31.8471 16.1079 31.4572 15.7521 30.9937 15.5208C29.2559 14.4778 27.1956 14.1093 25.2041 14.4854" stroke="#757575" stroke-width="2" stroke-linecap="round" stroke-linejoin="round"/>
<path d="M9.2062 10.9413C9.29799 10.9267 9.3915 10.9267 9.48329 10.9413C10.4704 10.905 11.4039 10.4827 12.0829 9.76524C12.7618 9.04776 13.1321 8.09245 13.1139 7.10481C13.0957 6.11716 12.6907 5.1761 11.9858 4.48406C11.2809 3.79202 10.3326 3.4043 9.34474 3.4043C8.35693 3.4043 7.40858 3.79202 6.70371 4.48406C5.99883 5.1761 5.59374 6.11716 5.57559 7.10481C5.55743 8.09245 5.92766 9.04776 6.60663 9.76524C7.2856 10.4827 8.21906 10.905 9.2062 10.9413Z" stroke="#757575" stroke-width="2" stroke-linecap="round" stroke-linejoin="round"/>
<path d="M10.7126 21.5577C8.73341 21.9231 6.68888 21.5495 4.96681 20.5077C4.50332 20.2765 4.11344 19.9206 3.84093 19.4801C3.56843 19.0396 3.42407 18.5319 3.42407 18.0139C3.42407 17.496 3.56843 16.9883 3.84093 16.5478C4.11344 16.1073 4.50332 15.7514 4.96681 15.5202C6.70335 14.4783 8.76188 14.1098 10.752 14.4848" stroke="#757575" stroke-width="2" stroke-linecap="round" stroke-linejoin="round"/>
<path d="M18.0001 21.8359C17.9083 21.8213 17.8148 21.8213 17.723 21.8359C16.7359 21.7996 15.8024 21.3772 15.1235 20.6598C14.4445 19.9423 14.0743 18.987 14.0924 17.9993C14.1106 17.0117 14.5157 16.0706 15.2206 15.3786C15.9254 14.6866 16.8738 14.2988 17.8616 14.2988C18.8494 14.2988 19.7977 14.6866 20.5026 15.3786C21.2075 16.0706 21.6126 17.0117 21.6307 17.9993C21.6489 18.987 21.2787 19.9423 20.5997 20.6598C19.9207 21.3772 18.9873 21.7996 18.0001 21.8359Z" stroke="#757575" stroke-width="2" stroke-linecap="round" stroke-linejoin="round"/>
<path d="M13.7561 26.43C13.2926 26.6612 12.9027 27.017 12.6302 27.4575C12.3577 27.898 12.2134 28.4057 12.2134 28.9237C12.2134 29.4417 12.3577 29.9494 12.6302 30.3899C12.9027 30.8304 13.2926 31.1862 13.7561 31.4175C15.0392 32.1834 16.5056 32.5879 17.9999 32.5879C19.4941 32.5879 20.9606 32.1834 22.2436 31.4175C22.7071 31.1862 23.097 30.8304 23.3695 30.3899C23.642 29.9494 23.7863 29.4417 23.7863 28.9237C23.7863 28.4057 23.642 27.898 23.3695 27.4575C23.097 27.017 22.7071 26.6612 22.2436 26.43C20.9582 25.6709 19.4927 25.2705 17.9999 25.2705C16.507 25.2705 15.0415 25.6709 13.7561 26.43Z" stroke="#757575" stroke-width="2" stroke-linecap="round" stroke-linejoin="round"/>
</svg>
